<svg xmlns="http://www.w3.org/2000/svg" xmlns:xlink="http://www.w3.org/1999/xlink" aria-hidden="true" role="img" class="iconify iconify--logos" width="31.88" height="32" preserveAspectRatio="xMidYMid meet" viewBox="0 0 256 257"><defs><linearGradient id="IconifyId181308a487886a3443" x1="-.828%" x2="57.636%" y1="7.652%" y2="78.411%"><stop offset="0%" stop-color="#41D1FF"></stop><stop offset="100%" stop-color="#BD34FE"></stop></linearGradient><linearGradient id="IconifyId181308a487886a3444" x1="43.376%" x2="50.316%" y1="2.242%" y2="89.03%"><stop offset="0%" stop-color="#FFEA83"></stop><stop offset="8.333%" stop-color="#FFDD35"></stop><stop offset="100%" stop-color="#FFA800"></stop></linearGradient></defs><path fill="url(#IconifyId181308a487886a3443)" d="M213.333 66.09v124.841L128 233.522l-85.333-42.591V66.09l85.333-42.591L213.333 66.09z"></path><path fill="url(#IconifyId181308a487886a3444)" d="m128 23.5l-2.667 4.591l- nazionale-.001-.001L40 69.04v118.919l88 44.041l88-44.04V69.04L130.667 28.091L128 23.5zM212 67.101v121.8l-84 42l-84-42V67.101l84-42l84 42z"></path><path fill="#343090" d="M128 23.5L40 69.04v118.919l88 44.041l88-44.04V69.04L128 23.5zm0 208.54L44 189.959V67.101l84-42l84 42v122.858L128 232.04z"></path></svg>